<?xml version="1.0" standalone="no"?>
<!DOCTYPE svg PUBLIC "-//W3C//DTD SVG 1.1//EN" "http://www.w3.org/Graphics/SVG/1.1/DTD/svg11.dtd" >
<svg xmlns="http://www.w3.org/2000/svg">
<metadata>
This is a custom SVG webfont generated by Font Squirrel.
Foundry     : Ben Harris and others
</metadata>
<defs>
<font id="BedsteadTtx2GraphicsRemixRg" horiz-adv-x="800" >
<font-face units-per-em="1000" ascent="750" descent="-250" />
<missing-glyph horiz-adv-x="500" />
<glyph d="M150 700h500v-700h-500v700v0zM550 600h-300v-500h300v500v0z" />
<glyph d="M150 700h500v-700h-500v700v0zM550 600h-300v-500h300v500v0z" />
<glyph horiz-adv-x="1000" />
<glyph horiz-adv-x="1000" />
<glyph horiz-adv-x="1000" />
<glyph horiz-adv-x="1000" />
<glyph horiz-adv-x="1000" />
<glyph horiz-adv-x="1000" />
<glyph horiz-adv-x="1000" />
<glyph horiz-adv-x="1000" />
<glyph unicode="&#x9;" horiz-adv-x="1000" />
<glyph unicode="&#xa;" horiz-adv-x="1000" />
<glyph horiz-adv-x="1000" />
<glyph horiz-adv-x="1000" />
<glyph unicode="&#xd;" horiz-adv-x="1000" />
<glyph horiz-adv-x="1000" />
<glyph horiz-adv-x="1000" />
<glyph horiz-adv-x="1000" />
<glyph horiz-adv-x="1000" />
<glyph horiz-adv-x="1000" />
<glyph horiz-adv-x="1000" />
<glyph horiz-adv-x="1000" />
<glyph horiz-adv-x="1000" />
<glyph horiz-adv-x="1000" />
<glyph horiz-adv-x="1000" />
<glyph horiz-adv-x="1000" />
<glyph horiz-adv-x="1000" />
<glyph horiz-adv-x="1000" />
<glyph horiz-adv-x="1000" />
<glyph horiz-adv-x="1000" />
<glyph horiz-adv-x="1000" />
<glyph horiz-adv-x="1000" />
<glyph horiz-adv-x="1000" />
<glyph unicode=" " />
<glyph unicode="!" d="M0 800h400v-300h-400v300v0z" />
<glyph unicode="&#x22;" d="M400 800h400v-300h-400v300v0z" />
<glyph unicode="#" d="M0 800h800v-300h-800v300v0z" />
<glyph unicode="$" d="M0 500h450v-400h-450v400v0z" />
<glyph unicode="%" d="M0 800h400v-700h-400v700v0z" />
<glyph unicode="&#x26;" d="M400 800h400v-300h-400v-400h-400v400h400v300v0z" />
<glyph unicode="'" d="M0 800h800v-300h-400v-400h-400v700v0z" />
<glyph unicode="(" d="M400 500h400v-400h-400v400v0z" />
<glyph unicode=")" d="M0 800h400v-300h400v-400h-400v400h-400v300v0z" />
<glyph unicode="*" d="M400 800h400v-700h-400v700v0z" />
<glyph unicode="+" d="M0 800h800v-700h-400v400h-400v300v0z" />
<glyph unicode="," d="M0 500h800v-400h-800v400v0z" />
<glyph unicode="-" d="M0 800h450v-300h350v-400h-800v700v0z" />
<glyph unicode="." d="M400 800h400v-700h-800v400h400v300v0z" />
<glyph unicode="/" d="M0 800h800v-700h-800v700v0z" />
<glyph unicode="0" d="M0 100h400v-300h-400v300v0z" />
<glyph unicode="1" d="M0 800h400v-300h-400v300v0zM0 100h400v-300h-400v300v0z" />
<glyph unicode="2" d="M400 800h400v-300h-400v300v0zM0 100h400v-300h-400v300v0z" />
<glyph unicode="3" d="M0 800h800v-300h-800v300v0zM0 100h450v-300h-450v300v0z" />
<glyph unicode="4" d="M0 500h400v-700h-400v700v0z" />
<glyph unicode="5" d="M0 800h400v-1000h-400v1000v0z" />
<glyph unicode="6" d="M400 800h400v-300h-400v-700h-400v700h400v300v0z" />
<glyph unicode="7" d="M0 800h800v-300h-400v-700h-400v1000v0z" />
<glyph unicode="8" d="M400 500h400v-400h-400v-300h-400v300h400v400v0z" />
<glyph unicode="9" d="M0 800h400v-300h400v-400h-400v-300h-400v300h400v400h-400v300v0z" />
<glyph unicode=":" d="M400 800h400v-700h-400v-300h-400v300h400v700v0z" />
<glyph unicode=";" d="M0 800h800v-700h-400v-300h-400v300h400v400h-400v300v0z" />
<glyph unicode="&#x3c;" d="M0 500h800v-400h-400v-300h-400v700v0z" />
<glyph unicode="=" d="M0 800h450v-300h350v-400h-350v-300h-450v1000v0z" />
<glyph unicode="&#x3e;" d="M400 800h400v-700h-400v-300h-400v700h400v300v0z" />
<glyph unicode="?" d="M0 800h800v-700h-350v-300h-450v1000v0z" />
<glyph unicode="@" d="M250 700h300v-50h50v-50h50v-400h-300v300h200v50h-50v50h-200v-50h-50v-400h50v-50h250v-100h-300v50h-50v50h-50v500h50v50h50v50v0zM550 400h-100v-100h100v100v0z" />
<glyph unicode="A" d="M350 700h100v-50h50v-50h50v-50h50v-50h50v-500h-100v200h-300v-200h-100v500h50v50h50v50h50v50h50v50v0zM450 550h-100v-50h-50v-50h-50v-150h300v150h-50v50h-50v50v0z" />
<glyph unicode="B" d="M150 700h400v-50h50v-50h50v-200h-50v-100h50v-200h-50v-50h-50v-50h-400v700v0zM500 600h-250v-200h250v50h50v100h-50v50v0zM500 300h-250v-200h250v50h50v100h-50v50v0z" />
<glyph unicode="C" d="M250 700h300v-50h50v-50h50v-100h-100v50h-50v50h-200v-50h-50v-400h50v-50h200v50h50v50h100v-100h-50v-50h-50v-50h-300v50h-50v50h-50v500h50v50h50v50v0z" />
<glyph unicode="D" d="M150 700h400v-50h50v-50h50v-500h-50v-50h-50v-50h-400v700v0zM500 600h-250v-500h250v50h50v400h-50v50v0z" />
<glyph unicode="E" d="M150 700h500v-100h-400v-200h300v-100h-300v-200h400v-100h-500v700v0z" />
<glyph unicode="F" d="M150 700h500v-100h-400v-200h300v-100h-300v-300h-100v700v0z" />
<glyph unicode="G" d="M250 700h300v-50h50v-50h50v-100h-100v50h-50v50h-200v-50h-50v-400h50v-50h250v100h-100v100h200v-300h-400v50h-50v50h-50v500h50v50h50v50v0z" />
<glyph unicode="H" d="M150 700h100v-300h300v300h100v-700h-100v300h-300v-300h-100v700v0z" />
<glyph unicode="I" d="M250 700h300v-100h-100v-500h100v-100h-300v100h100v500h-100v100v0z" />
<glyph unicode="J" d="M550 700h100v-600h-50v-50h-50v-50h-300v50h-50v50h-50v100h100v-50h50v-50h200v50h50v550v0z" />
<glyph unicode="K" d="M150 700h100v-300h50v50h50v50h50v50h50v50h50v50h50v50h100v-100h-50v-50h-50v-50h-50v-50h-50v-50h-50v-100h50v-50h50v-50h50v-50h50v-50h50v-100h-100v50h-50v50h-50v50h-50v50h-50v50h-50v50h-50v-300h-100v700v0z" />
<glyph unicode="L" d="M150 700h100v-600h400v-100h-500v700v0z" />
<glyph unicode="M" d="M150 700h100v-100h100v-50h100v50h100v100h100v-700h-100v500h-50v-50h-50v-150h-100v150h-50v50h-50v-500h-100v700v0z" />
<glyph unicode="N" d="M150 700h100v-200h100v-50h50v-50h50v-50h50v-50h50v400h100v-700h-100v200h-100v50h-50v50h-50v50h-50v50h-50v-400h-100v700v0z" />
<glyph unicode="O" d="M250 700h300v-50h50v-50h50v-500h-50v-50h-50v-50h-300v50h-50v50h-50v500h50v50h50v50v0zM500 600h-200v-50h-50v-400h50v-50h200v50h50v400h-50v50v0z" />
<glyph unicode="P" d="M150 700h400v-50h50v-50h50v-200h-50v-50h-50v-50h-300v-300h-100v700v0zM500 600h-250v-200h250v50h50v100h-50v50v0z" />
<glyph unicode="Q" d="M250 700h300v-50h50v-50h50v-400h-50v-100h50v-100h-100v50h-100v-50h-200v50h-50v50h-50v500h50v50h50v50v0zM500 600h-200v-50h-50v-400h50v-50h100v100h-50v100h100v-50h100v300h-50v50v0z" />
<glyph unicode="R" d="M150 700h400v-50h50v-50h50v-200h-50v-50h-50v-50h-100v-50h50v-50h50v-50h50v-50h50v-100h-100v50h-50v50h-50v50h-50v50h-50v100h-100v-300h-100v700v0zM500 600h-250v-200h250v50h50v100h-50v50v0z" />
<glyph unicode="S" d="M250 700h300v-50h50v-50h50v-100h-100v50h-50v50h-200v-50h-50v-100h50v-50h250v-50h50v-50h50v-200h-50v-50h-50v-50h-300v50h-50v50h-50v100h100v-50h50v-50h200v50h50v100h-50v50h-250v50h-50v50h-50v200h50v50h50v50v0z" />
<glyph unicode="T" d="M150 700h500v-100h-200v-600h-100v600h-200v100v0z" />
<glyph unicode="U" d="M150 700h100v-550h50v-50h200v50h50v550h100v-600h-50v-50h-50v-50h-300v50h-50v50h-50v600v0z" />
<glyph unicode="V" d="M150 700h100v-250h50v-50h50v-150h100v150h50v50h50v250h100v-300h-50v-50h-50v-150h-50v-50h-50v-150h-100v150h-50v50h-50v150h-50v50h-50v300v0z" />
<glyph unicode="W" d="M150 700h100v-550h100v250h100v-250h100v550h100v-600h-50v-50h-50v-50h-100v50h-100v-50h-100v50h-50v50h-50v600v0z" />
<glyph unicode="X" d="M150 700h100v-150h50v-50h50v-50h100v50h50v50h50v150h100v-200h-50v-50h-50v-50h-50v-100h50v-50h50v-50h50v-200h-100v150h-50v50h-50v50h-100v-50h-50v-50h-50v-150h-100v200h50v50h50v50h50v100h-50v50h-50v50h-50v200v0z" />
<glyph unicode="Y" d="M150 700h100v-150h50v-50h50v-50h100v50h50v50h50v150h100v-200h-50v-50h-50v-50h-50v-50h-50v-350h-100v350h-50v50h-50v50h-50v50h-50v200v0z" />
<glyph unicode="Z" d="M150 700h500v-200h-50v-50h-50v-50h-50v-50h-50v-50h-50v-50h-50v-50h-50v-50h-50v-50h400v-100h-500v200h50v50h50v50h50v50h50v50h50v50h50v50h50v50h50v50h-400v100v0z" />
<glyph unicode="[" d="M200 700h400v-100h-300v-500h300v-100h-400v700v0z" />
<glyph unicode="\" d="M150 600h100v-50h50v-50h50v-50h50v-50h50v-50h50v-50h50v-50h50v-50h50v-100h-100v50h-50v50h-50v50h-50v50h-50v50h-50v50h-50v50h-50v50h-50v100v0z" />
<glyph unicode="]" d="M200 700h400v-700h-400v100h300v500h-300v100v0z" />
<glyph unicode="^" d="M350 700h100v-50h50v-50h50v-50h50v-50h50v-100h-100v50h-50v50h-50v50h-100v-50h-50v-50h-50v-50h-100v100h50v50h50v50h50v50h50v50v0z" />
<glyph unicode="_" d="M150 100h500v-100h-500v100v0z" />
<glyph unicode="`" d="M250 700h100v-50h50v-50h50v-50h50v-50h50v-100h-100v50h-50v50h-50v50h-50v50h-50v100v0z" />
<glyph unicode="a" d="M400 800h400v-300h-400v300v0zM0 100h400v-300h-400v300v0z" />
<glyph unicode="b" d="M400 800h400v-300h-400v300v0zM400 100h400v-300h-400v300v0z" />
<glyph unicode="c" d="M0 800h800v-300h-800v300v0zM350 100h450v-300h-450v300v0z" />
<glyph unicode="d" d="M0 500h400v-400h400v-300h-400v300h-400v400v0z" />
<glyph unicode="e" d="M0 800h400v-700h400v-300h-400v300h-400v700v0z" />
<glyph unicode="f" d="M400 800h400v-300h-400v-400h400v-300h-400v300h-400v400h400v300v0z" />
<glyph unicode="g" d="M0 800h800v-300h-400v-400h400v-300h-400v300h-400v700v0z" />
<glyph unicode="h" d="M400 500h400v-700h-400v700v0z" />
<glyph unicode="i" d="M0 800h400v-300h400v-700h-400v700h-400v300v0z" />
<glyph unicode="j" d="M400 800h400v-1000h-400v1000v0z" />
<glyph unicode="k" d="M0 800h800v-1000h-400v700h-400v300v0z" />
<glyph unicode="l" d="M0 500h800v-700h-400v300h-400v400v0z" />
<glyph unicode="m" d="M0 800h400v-300h400v-700h-400v300h-400v700v0z" />
<glyph unicode="n" d="M400 800h400v-1000h-400v300h-400v400h400v300v0z" />
<glyph unicode="o" d="M0 100h450v-300h-450v300v0z" />
<glyph unicode="p" d="M0 100h800v-300h-800v300v0z" />
<glyph unicode="q" d="M0 800h400v-300h-400v300v0zM0 100h800v-300h-800v300v0z" />
<glyph unicode="r" d="M400 800h400v-300h-400v300v0zM0 100h800v-300h-800v300v0z" />
<glyph unicode="s" d="M0 800h800v-300h-800v300v0zM0 100h800v-300h-800v300v0z" />
<glyph unicode="t" d="M0 500h400v-400h400v-300h-800v700v0z" />
<glyph unicode="u" d="M0 800h400v-700h400v-300h-800v1000v0z" />
<glyph unicode="v" d="M400 800h400v-300h-400v-400h400v-300h-800v700h400v300v0z" />
<glyph unicode="w" d="M0 800h800v-300h-400v-400h400v-300h-800v1000v0z" />
<glyph unicode="x" d="M400 500h400v-700h-800v300h400v400v0z" />
<glyph unicode="y" d="M0 800h400v-300h400v-700h-800v300h400v400h-400v300v0z" />
<glyph unicode="z" d="M400 800h400v-1000h-800v300h400v700v0z" />
<glyph unicode="{" d="M400 700h200v-100h-150v-50h-50v-150h-50v-100h50v-150h50v-50h150v-100h-200v50h-50v50h-50v150h-50v50h-50v100h50v50h50v150h50v50h50v50v0z" />
<glyph unicode="|" d="M350 700h100v-700h-100v700v0z" />
<glyph unicode="}" d="M200 700h200v-50h50v-50h50v-150h50v-50h50v-100h-50v-50h-50v-150h-50v-50h-50v-50h-200v100h150v50h50v150h50v100h-50v150h-50v50h-150v100v0z" />
<glyph unicode="~" d="M250 700h100v-50h50v-50h50v-50h100v50h100v-100h-50v-50h-50v-50h-100v50h-50v50h-50v50h-100v-50h-100v100h50v50h50v50v0z" />
<glyph horiz-adv-x="1000" />
<glyph d="M250 700h100v-100h-100v100v0zM450 700h100v-100h-100v100v0zM250 500h300v-50h50v-50h50v-400h-100v200h-300v-200h-100v400h50v50h50v50v0zM500 400h-200v-50h-50v-50h300v50h-50v50v0z" />
<glyph horiz-adv-x="1000" />
<glyph d="M450 700h100v-100h-50v-50h-50v-50h200v-100h-400v-100h300v-100h-300v-100h400v-100h-500v500h200v100h50v50h50v50v0z" />
<glyph horiz-adv-x="1000" />
<glyph unicode="&#x85;" d="M250 700h100v-100h-100v100v0zM450 700h100v-100h-100v100v0zM250 500h300v-50h50v-50h50v-300h-50v-50h-50v-50h-300v50h-50v50h-50v300h50v50h50v50v0zM500 400h-200v-50h-50v-200h50v-50h200v50h50v200h-50v50v0z" />
<glyph d="M250 700h100v-100h-100v100v0zM450 700h100v-100h-100v100v0zM150 500h100v-350h50v-50h200v50h50v350h100v-400h-50v-50h-50v-50h-300v50h-50v50h-50v400v0z" />
<glyph horiz-adv-x="1000" />
<glyph d="M250 700h100v-50h50v-50h50v-100h100v-50h50v-50h50v-400h-400v50h-50v50h-50v100h50v50h50v50h300v50h-50v50h-250v100h100v50h-50v50h-50v100v0zM550 200h-250v-100h250v100v0z" />
<glyph d="M350 700h100v-50h50v-50h50v-150h50v-50h50v-400h-400v50h-50v50h-50v100h50v50h50v50h300v50h-50v50h-250v200h50v50h50v50v0zM450 550h-100v-50h100v50v0zM550 200h-250v-100h250v100v0z" />
<glyph d="M250 700h100v-100h-100v100v0zM450 700h100v-100h-100v100v0zM250 500h300v-50h50v-50h50v-400h-400v50h-50v50h-50v100h50v50h50v50h300v50h-50v50h-250v100v0zM550 200h-250v-100h250v100v0zM250 700h300v-50h50v-50h50v-100h-100v50h-50v50h-200v-50h-50v-100h50v-50 h250v-50h50v-50h50v-200h-50v-50h-50v-50h-300v50h-50v50h-50v100h100v-50h50v-50h200v50h50v100h-50v50h-250v50h-50v50h-50v200h50v50h50v50v0z" />
<glyph horiz-adv-x="1000" />
<glyph d="M350 700h100v-100h-100v100v0zM250 500h300v-50h50v-50h50v-400h-400v50h-50v50h-50v100h50v50h50v50h300v50h-50v50h-250v100v0zM550 200h-250v-100h250v100v0zM250 700h300v-50h50v-50h50v-500h-50v-50h-50v-50h-300v50h-50v50h-50v500h50v50h50v50v0zM500 600h-200 v-50h-50v-400h50v-50h200v50h50v400h-50v50v0zM950 700h500v-100h-400v-200h300v-100h-300v-200h400v-100h-500v700v0z" />
<glyph d="M450 700h100v-100h-50v-50h-50v-50h100v-50h50v-50h50v-200h-400v-50h50v-50h250v-100h-300v50h-50v50h-50v300h50v50h50v50h100v100h50v50h50v50v0zM500 400h-200v-50h-50v-50h300v50h-50v50v0zM150 700h500v-200h-50v-50h-50v-50h-50v-50h-50v-50h-50v-50h-50v-50h-50 v-50h-50v-50h400v-100h-500v200h50v50h50v50h50v50h50v50h50v50h50v50h50v50h50v50h-400v100v0z" />
<glyph d="M250 700h100v-100h-100v100v0zM450 700h100v-100h-100v100v0zM250 500h300v-50h50v-50h50v-200h-400v-50h50v-50h250v-100h-300v50h-50v50h-50v300h50v50h50v50v0zM500 400h-200v-50h-50v-50h300v50h-50v50v0z" />
<glyph horiz-adv-x="1000" />
<glyph d="M250 700h100v-50h50v-50h50v-100h-100v50h-50v50h-50v100v0zM250 400h200v-300h100v-100h-300v100h100v200h-100v100v0z" />
<glyph d="M350 700h100v-50h50v-50h50v-100h-100v50h-100v-50h-100v100h50v50h50v50v0zM250 400h200v-300h100v-100h-300v100h100v200h-100v100v0z" />
<glyph d="M250 700h100v-100h-100v100v0zM450 700h100v-100h-100v100v0zM250 500h200v-400h100v-100h-300v100h100v300h-100v100v0z" />
<glyph horiz-adv-x="1000" />
<glyph horiz-adv-x="1000" />
<glyph d="M250 700h100v-50h50v-50h50v-100h-100v50h-50v50h-50v100v0zM250 400h300v-50h50v-50h50v-200h-50v-50h-50v-50h-300v50h-50v50h-50v200h50v50h50v50v0zM500 300h-200v-50h-50v-100h50v-50h200v50h50v100h-50v50v0z" />
<glyph d="M350 700h100v-50h50v-50h50v-150h50v-50h50v-300h-50v-50h-50v-50h-300v50h-50v50h-50v300h50v50h50v150h50v50h50v50v0zM450 550h-100v-50h100v50v0zM500 400h-200v-50h-50v-200h50v-50h200v50h50v200h-50v50v0z" />
<glyph d="M250 600h100v-100h-100v100v0zM450 600h100v-100h-100v100v0zM250 400h300v-50h50v-50h50v-200h-50v-50h-50v-50h-300v50h-50v50h-50v200h50v50h50v50v0zM500 300h-200v-50h-50v-100h50v-50h200v50h50v100h-50v50v0zM0 800h800v-300h-800v300v0zM0 100h800v-300h-800v300 v0z" />
<glyph horiz-adv-x="1000" />
<glyph horiz-adv-x="1000" d="M0 100h450v-300h-450v300v0zM800 800h400v-700h400v-300h-400v300h-400v700v0z" />
<glyph d="M350 700h100v-50h50v-50h50v-100h-100v50h-100v-50h-100v100h50v50h50v50v0zM150 400h100v-250h50v-50h250v300h100v-400h-400v50h-50v50h-50v300v0zM400 800h400v-1000h-800v300h400v700v0z" />
<glyph d="M250 600h100v-100h-100v100v0zM450 600h100v-100h-100v100v0zM150 400h100v-250h50v-50h250v300h100v-400h-400v50h-50v50h-50v300v0zM150 700h100v-150h50v-50h50v-50h100v50h50v50h50v150h100v-200h-50v-50h-50v-50h-50v-50h-50v-350h-100v350h-50v50h-50v50h-50v50 h-50v200v0z" />
<glyph unicode="&#xa1;" d="M300 700h200v-50h50v-50h50v-100h-50v-50h-50v-50h-200v50h-50v50h-50v100h50v50h50v50v0zM450 600h-100v-100h100v100v0zM0 800h400v-300h-400v300v0z" />
<glyph unicode="&#xa2;" d="M350 600h100v-100h200v-100h-200v-300h200v-100h-200v-100h-100v100h-100v50h-50v50h-50v300h50v50h50v50h100v100v0zM350 400h-50v-50h-50v-200h50v-50h50v300v0z" />
<glyph unicode="&#xa3;" d="M350 700h200v-50h50v-50h50v-100h-100v50h-50v50h-100v-50h-50v-150h100v-100h-100v-200h300v-100h-500v100h100v200h-100v100h100v200h50v50h50v50v0z" />
<glyph unicode="&#xa4;" d="M250 700h300v-50h50v-50h50v-100h-100v50h-50v50h-200v-50h-50v-100h50v-50h250v-50h50v-50h50v-100h-50v-100h50v-200h-50v-50h-50v-50h-300v50h-50v50h-50v100h100v-50h50v-50h200v50h50v100h-50v50h-250v50h-50v50h-50v100h50v100h-50v200h50v50h50v50v0zM500 300 h-200v-100h200v100v0z" />
<glyph unicode="&#xa5;" horiz-adv-x="1000" />
<glyph unicode="&#xa6;" d="M250 700h200v-700h-100v300h-100v50h-50v50h-50v200h50v50h50v50v0zM550 700h100v-700h-100v700v0zM350 600h-50v-50h-50v-100h50v-50h50v200v0z" />
<glyph unicode="&#xa7;" d="M250 700h200v-50h50v-50h50v-250h50v-50h50v-200h-50v-50h-50v-50h-200v100h150v50h50v100h-50v50h-150v100h100v150h-50v50h-100v-50h-50v-750h-100v800h50v50h50v50v0z" />
<glyph unicode="&#xa8;" horiz-adv-x="1000" />
<glyph unicode="&#xa9;" horiz-adv-x="1000" />
<glyph unicode="&#xaa;" horiz-adv-x="1000" d="M400 800h400v-300h-400v300v0zM0 100h400v-300h-400v300v0z" />
<glyph unicode="&#xab;" d="M450 700h100v-100h-50v-50h-50v-50h-50v-50h-50v-50h-100v100h50v50h50v50h50v50h50v50v0z" />
<glyph unicode="&#xac;" d="M200 700h100v-100h-100v100v0zM500 700h100v-100h-100v100v0z" />
<glyph unicode="&#xad;" horiz-adv-x="1000" />
<glyph unicode="&#xae;" d="M250 700h400v-100h-200v-200h100v-100h-100v-200h200v-100h-300v300h-100v-300h-100v600h50v50h50v50v0zM350 600h-50v-50h-50v-150h100v200v0z" />
<glyph unicode="&#xaf;" horiz-adv-x="1000" />
<glyph unicode="&#xb0;" horiz-adv-x="1000" />
<glyph unicode="&#xb1;" d="M350 700h100v-200h200v-100h-200v-200h-100v200h-200v100h200v200v0zM150 100h500v-100h-500v100v0z" />
<glyph unicode="&#xb2;" horiz-adv-x="1000" d="M400 800h400v-300h-400v300v0zM0 100h400v-300h-400v300v0z" />
<glyph unicode="&#xb3;" horiz-adv-x="1000" d="M0 800h800v-300h-800v300v0zM0 100h450v-300h-450v300v0z" />
<glyph unicode="&#xb4;" d="M150 700h100v-50h50v-50h50v-100h100v100h50v50h50v50h100v-100h-50v-50h-50v-50h100v-100h-200v-100h200v-100h-200v-200h-100v200h-200v100h200v100h-200v100h100v50h-50v50h-50v100v0z" />
<glyph unicode="&#xb5;" d="M150 500h100v-400h150v50h50v350h100v-350h50v-50h50v-100h-100v50h-100v-50h-200v-200h-100v700v0z" />
<glyph unicode="&#xb6;" horiz-adv-x="1000" />
<glyph unicode="&#xb7;" horiz-adv-x="1000" />
<glyph unicode="&#xb8;" horiz-adv-x="1000" />
<glyph unicode="&#xb9;" horiz-adv-x="1000" d="M0 800h400v-300h-400v300v0zM0 100h400v-300h-400v300v0z" />
<glyph unicode="&#xba;" horiz-adv-x="1000" d="M0 100h450v-300h-450v300v0z" />
<glyph unicode="&#xbb;" d="M250 700h300v-50h50v-50h50v-400h-400v50h-50v50h-50v100h50v50h50v50h300v50h-50v50h-250v100v0zM550 400h-250v-100h250v100v0zM150 100h500v-100h-500v100v0z" />
<glyph unicode="&#xbc;" d="M250 700h300v-50h50v-50h50v-300h-50v-50h-50v-50h-300v50h-50v50h-50v300h50v50h50v50v0zM500 600h-200v-50h-50v-200h50v-50h200v50h50v200h-50v50v0zM150 100h500v-100h-500v100v0zM0 800h400v-300h-400v300v0zM0 100h400v-300h-400v300v0zM800 800h800v-700h-800v700 v0zM1600 500h400v-700h-400v700v0z" />
<glyph unicode="&#xbd;" horiz-adv-x="1000" d="M0 800h400v-300h-400v300v0zM0 100h400v-300h-400v300v0zM800 800h800v-700h-800v700v0zM2000 800h400v-300h-400v300v0zM1600 100h400v-300h-400v300v0z" />
<glyph unicode="&#xbe;" d="M250 500h100v-50h100v50h100v-50h50v-50h50v-200h-200v-100h100v-100h-300v50h-50v50h-50v100h50v50h50v50h100v50h-50v50h-50v100v0zM550 350h-100v-50h100v50v0zM350 200h-50v-100h50v100v0zM0 800h800v-300h-800v300v0zM0 100h450v-300h-450v300v0zM800 800h800v-700 h-800v700v0zM1600 500h400v-700h-400v700v0z" />
<glyph unicode="&#xbf;" horiz-adv-x="1000" d="M0 800h800v-700h-350v-300h-450v1000v0z" />
<glyph unicode="&#xc0;" d="M350 500h100v-100h-100v100v0zM350 300h100v-200h-50v-50h-50v-50h-50v-100h200v50h50v50h100v-100h-50v-50h-50v-50h-300v50h-50v50h-50v100h50v50h50v50h50v50h50v150v0zM350 700h100v-50h50v-50h50v-50h50v-50h50v-500h-100v200h-300v-200h-100v500h50v50h50v50h50v50 h50v50v0zM450 550h-100v-50h-50v-50h-50v-150h300v150h-50v50h-50v50v0zM250 700h100v-50h50v-50h50v-50h50v-50h50v-100h-100v50h-50v50h-50v50h-50v50h-50v100v0z" />
<glyph unicode="&#xc1;" d="M350 500h100v-100h-100v100v0zM350 300h100v-500h-100v500v0zM350 700h100v-50h50v-50h50v-50h50v-50h50v-500h-100v200h-300v-200h-100v500h50v50h50v50h50v50h50v50v0zM450 550h-100v-50h-50v-50h-50v-150h300v150h-50v50h-50v50v0zM150 700h100v-50h50v-50h50v-100 h100v100h50v50h50v50h100v-100h-50v-50h-50v-50h100v-100h-200v-100h200v-100h-200v-200h-100v200h-200v100h200v100h-200v100h100v50h-50v50h-50v100v0z" />
<glyph unicode="&#xc2;" d="M150 500h500v-300h-100v200h-400v100v0zM350 700h100v-50h50v-50h50v-50h50v-50h50v-500h-100v200h-300v-200h-100v500h50v50h50v50h50v50h50v50v0zM450 550h-100v-50h-50v-50h-50v-150h300v150h-50v50h-50v50v0zM250 700h100v-50h50v-50h50v-100h100v-50h50v-50h50v-400 h-400v50h-50v50h-50v100h50v50h50v50h300v50h-50v50h-250v100h100v50h-50v50h-50v100v0zM550 200h-250v-100h250v100v0z" />
<glyph unicode="&#xc3;" horiz-adv-x="1000" d="M350 700h100v-50h50v-50h50v-50h50v-50h50v-500h-100v200h-300v-200h-100v500h50v50h50v50h50v50h50v50v0zM450 550h-100v-50h-50v-50h-50v-150h300v150h-50v50h-50v50v0zM250 700h100v-50h50v-50h50v-100h-100v50h-50v50h-50v100v0zM250 400h300v-50h50v-50h50v-200h-50 v-50h-50v-50h-300v50h-50v50h-50v200h50v50h50v50v0zM500 300h-200v-50h-50v-100h50v-50h200v50h50v100h-50v50v0z" />
<glyph unicode="&#xc4;" horiz-adv-x="1000" d="M350 700h100v-50h50v-50h50v-50h50v-50h50v-500h-100v200h-300v-200h-100v500h50v50h50v50h50v50h50v50v0zM450 550h-100v-50h-50v-50h-50v-150h300v150h-50v50h-50v50v0z" />
<glyph unicode="&#xc5;" horiz-adv-x="1000" d="M350 700h100v-50h50v-50h50v-50h50v-50h50v-500h-100v200h-300v-200h-100v500h50v50h50v50h50v50h50v50v0zM450 550h-100v-50h-50v-50h-50v-150h300v150h-50v50h-50v50v0z" />
<glyph unicode="&#xc6;" horiz-adv-x="1000" d="M350 700h100v-50h50v-50h50v-50h50v-50h50v-500h-100v200h-300v-200h-100v500h50v50h50v50h50v50h50v50v0zM450 550h-100v-50h-50v-50h-50v-150h300v150h-50v50h-50v50v0zM950 700h500v-100h-400v-200h300v-100h-300v-200h400v-100h-500v700v0z" />
<glyph unicode="&#xc7;" d="M250 400h100v-100h-50v-100h50v-100h-100v50h-50v50h-50v100h50v50h50v50v0zM550 400h100v-100h-50v-100h50v-100h-100v50h-50v50h-50v100h50v50h50v50v0zM250 700h300v-50h50v-50h50v-100h-100v50h-50v50h-200v-50h-50v-400h50v-50h200v50h50v50h100v-100h-50v-50h-50 v-50h-300v50h-50v50h-50v500h50v50h50v50v0z" />
<glyph unicode="&#xc8;" d="M150 400h100v-50h50v-50h50v-100h-50v-50h-50v-50h-100v100h50v100h-50v100v0zM450 400h100v-50h50v-50h50v-100h-50v-50h-50v-50h-100v100h50v100h-50v100v0zM150 700h500v-100h-400v-200h300v-100h-300v-200h400v-100h-500v700v0zM250 700h100v-50h50v-50h50v-50h50 v-50h50v-100h-100v50h-50v50h-50v50h-50v50h-50v100v0z" />
<glyph unicode="&#xc9;" horiz-adv-x="1000" d="M150 700h500v-100h-400v-200h300v-100h-300v-200h400v-100h-500v700v0zM150 700h100v-50h50v-50h50v-100h100v100h50v50h50v50h100v-100h-50v-50h-50v-50h100v-100h-200v-100h200v-100h-200v-200h-100v200h-200v100h200v100h-200v100h100v50h-50v50h-50v100v0z" />
<glyph unicode="&#xca;" horiz-adv-x="1000" d="M150 700h500v-100h-400v-200h300v-100h-300v-200h400v-100h-500v700v0zM250 700h100v-50h50v-50h50v-100h100v-50h50v-50h50v-400h-400v50h-50v50h-50v100h50v50h50v50h300v50h-50v50h-250v100h100v50h-50v50h-50v100v0zM550 200h-250v-100h250v100v0z" />
<glyph unicode="&#xcb;" horiz-adv-x="1000" d="M150 700h500v-100h-400v-200h300v-100h-300v-200h400v-100h-500v700v0z" />
<glyph unicode="&#xcc;" horiz-adv-x="1000" d="M250 700h300v-100h-100v-500h100v-100h-300v100h100v500h-100v100v0zM250 700h100v-50h50v-50h50v-50h50v-50h50v-100h-100v50h-50v50h-50v50h-50v50h-50v100v0z" />
<glyph unicode="&#xcd;" horiz-adv-x="1000" d="M250 700h300v-100h-100v-500h100v-100h-300v100h100v500h-100v100v0zM150 700h100v-50h50v-50h50v-100h100v100h50v50h50v50h100v-100h-50v-50h-50v-50h100v-100h-200v-100h200v-100h-200v-200h-100v200h-200v100h200v100h-200v100h100v50h-50v50h-50v100v0z" />
<glyph unicode="&#xce;" horiz-adv-x="1000" d="M250 700h300v-100h-100v-500h100v-100h-300v100h100v500h-100v100v0zM250 700h100v-50h50v-50h50v-100h100v-50h50v-50h50v-400h-400v50h-50v50h-50v100h50v50h50v50h300v50h-50v50h-250v100h100v50h-50v50h-50v100v0zM550 200h-250v-100h250v100v0z" />
<glyph unicode="&#xcf;" horiz-adv-x="1000" d="M250 700h300v-100h-100v-500h100v-100h-300v100h100v500h-100v100v0z" />
<glyph unicode="&#xd0;" d="M150 400h500v-100h-500v100v0z" />
<glyph unicode="&#xd1;" horiz-adv-x="1000" d="M150 700h100v-200h100v-50h50v-50h50v-50h50v-50h50v400h100v-700h-100v200h-100v50h-50v50h-50v50h-50v50h-50v-400h-100v700v0zM250 700h100v-50h50v-50h50v-100h-100v50h-50v50h-50v100v0zM250 400h300v-50h50v-50h50v-200h-50v-50h-50v-50h-300v50h-50v50h-50v200h50 v50h50v50v0zM500 300h-200v-50h-50v-100h50v-50h200v50h50v100h-50v50v0z" />
<glyph unicode="&#xd2;" d="M250 700h100v-100h-50v-50h-50v-150h-100v200h50v50h50v50v0zM550 700h100v-100h-50v-50h-50v-150h-100v200h50v50h50v50v0zM250 700h300v-50h50v-50h50v-500h-50v-50h-50v-50h-300v50h-50v50h-50v500h50v50h50v50v0zM500 600h-200v-50h-50v-400h50v-50h200v50h50v400 h-50v50v0zM250 700h100v-50h50v-50h50v-50h50v-50h50v-100h-100v50h-50v50h-50v50h-50v50h-50v100v0z" />
<glyph unicode="&#xd3;" d="M250 700h100v-200h-50v-50h-50v-50h-100v100h50v50h50v150v0zM550 700h100v-200h-50v-50h-50v-50h-100v100h50v50h50v150v0zM250 700h300v-50h50v-50h50v-500h-50v-50h-50v-50h-300v50h-50v50h-50v500h50v50h50v50v0zM500 600h-200v-50h-50v-400h50v-50h200v50h50v400 h-50v50v0zM150 700h100v-50h50v-50h50v-100h100v100h50v50h50v50h100v-100h-50v-50h-50v-50h100v-100h-200v-100h200v-100h-200v-200h-100v200h-200v100h200v100h-200v100h100v50h-50v50h-50v100v0z" />
<glyph unicode="&#xd4;" d="M400 700h100v-100h-50v-50h-50v-150h-100v200h50v50h50v50v0zM250 700h300v-50h50v-50h50v-500h-50v-50h-50v-50h-300v50h-50v50h-50v500h50v50h50v50v0zM500 600h-200v-50h-50v-400h50v-50h200v50h50v400h-50v50v0zM250 700h100v-50h50v-50h50v-100h100v-50h50v-50h50 v-400h-400v50h-50v50h-50v100h50v50h50v50h300v50h-50v50h-250v100h100v50h-50v50h-50v100v0zM550 200h-250v-100h250v100v0z" />
<glyph unicode="&#xd5;" d="M400 700h100v-200h-50v-50h-50v-50h-100v100h50v50h50v150v0zM250 700h300v-50h50v-50h50v-500h-50v-50h-50v-50h-300v50h-50v50h-50v500h50v50h50v50v0zM500 600h-200v-50h-50v-400h50v-50h200v50h50v400h-50v50v0zM250 700h100v-50h50v-50h50v-100h-100v50h-50v50h-50 v100v0zM250 400h300v-50h50v-50h50v-200h-50v-50h-50v-50h-300v50h-50v50h-50v200h50v50h50v50v0zM500 300h-200v-50h-50v-100h50v-50h200v50h50v100h-50v50v0z" />
<glyph unicode="&#xd6;" d="M350 600h100v-100h-100v100v0zM150 400h500v-100h-500v100v0zM350 200h100v-100h-100v100v0zM250 700h300v-50h50v-50h50v-500h-50v-50h-50v-50h-300v50h-50v50h-50v500h50v50h50v50v0zM500 600h-200v-50h-50v-400h50v-50h200v50h50v400h-50v50v0z" />
<glyph unicode="&#xd7;" horiz-adv-x="1000" />
<glyph unicode="&#xd8;" horiz-adv-x="1000" d="M250 700h300v-50h50v-50h50v-500h-50v-50h-50v-50h-300v50h-50v50h-50v500h50v50h50v50v0zM500 600h-200v-50h-50v-400h50v-50h200v50h50v400h-50v50v0zM0 800h800v-700h-800v700v0z" />
<glyph unicode="&#xd9;" horiz-adv-x="1000" d="M150 700h100v-550h50v-50h200v50h50v550h100v-600h-50v-50h-50v-50h-300v50h-50v50h-50v600v0zM250 700h100v-50h50v-50h50v-50h50v-50h50v-100h-100v50h-50v50h-50v50h-50v50h-50v100v0z" />
<glyph unicode="&#xda;" horiz-adv-x="1000" d="M150 700h100v-550h50v-50h200v50h50v550h100v-600h-50v-50h-50v-50h-300v50h-50v50h-50v600v0zM150 700h100v-50h50v-50h50v-100h100v100h50v50h50v50h100v-100h-50v-50h-50v-50h100v-100h-200v-100h200v-100h-200v-200h-100v200h-200v100h200v100h-200v100h100v50h-50 v50h-50v100v0z" />
<glyph unicode="&#xdb;" horiz-adv-x="1000" d="M150 700h100v-550h50v-50h200v50h50v550h100v-600h-50v-50h-50v-50h-300v50h-50v50h-50v600v0zM250 700h100v-50h50v-50h50v-100h100v-50h50v-50h50v-400h-400v50h-50v50h-50v100h50v50h50v50h300v50h-50v50h-250v100h100v50h-50v50h-50v100v0zM550 200h-250v-100h250 v100v0z" />
<glyph unicode="&#xdc;" horiz-adv-x="1000" d="M150 700h100v-550h50v-50h200v50h50v550h100v-600h-50v-50h-50v-50h-300v50h-50v50h-50v600v0z" />
<glyph unicode="&#xdd;" horiz-adv-x="1000" d="M150 700h100v-150h50v-50h50v-50h100v50h50v50h50v150h100v-200h-50v-50h-50v-50h-50v-50h-50v-350h-100v350h-50v50h-50v50h-50v50h-50v200v0zM150 700h100v-50h50v-50h50v-100h100v100h50v50h50v50h100v-100h-50v-50h-50v-50h100v-100h-200v-100h200v-100h-200v-200 h-100v200h-200v100h200v100h-200v100h100v50h-50v50h-50v100v0z" />
<glyph unicode="&#xde;" horiz-adv-x="1000" />
<glyph unicode="&#xdf;" horiz-adv-x="1000" />
<glyph unicode="&#xe0;" horiz-adv-x="1000" d="M400 800h400v-300h-400v300v0zM0 100h400v-300h-400v300v0zM250 700h100v-50h50v-50h50v-50h50v-50h50v-100h-100v50h-50v50h-50v50h-50v50h-50v100v0z" />
<glyph unicode="&#xe1;" d="M350 400h100v-100h-100v100v0zM400 800h400v-300h-400v300v0zM0 100h400v-300h-400v300v0zM150 700h100v-50h50v-50h50v-100h100v100h50v50h50v50h100v-100h-50v-50h-50v-50h100v-100h-200v-100h200v-100h-200v-200h-100v200h-200v100h200v100h-200v100h100v50h-50v50 h-50v100v0z" />
<glyph unicode="&#xe2;" d="M400 200h100v-200h-50v-50h-50v-50h-100v100h50v50h50v150v0zM400 800h400v-300h-400v300v0zM0 100h400v-300h-400v300v0zM250 700h100v-50h50v-50h50v-100h100v-50h50v-50h50v-400h-400v50h-50v50h-50v100h50v50h50v50h300v50h-50v50h-250v100h100v50h-50v50h-50v100v0z M550 200h-250v-100h250v100v0z" />
<glyph unicode="&#xe3;" d="M250 200h100v-200h-50v-50h-50v-50h-100v100h50v50h50v150v0zM550 200h100v-200h-50v-50h-50v-50h-100v100h50v50h50v150v0zM400 800h400v-300h-400v300v0zM0 100h400v-300h-400v300v0zM250 700h100v-50h50v-50h50v-100h-100v50h-50v50h-50v100v0zM250 400h300v-50h50 v-50h50v-200h-50v-50h-50v-50h-300v50h-50v50h-50v200h50v50h50v50v0zM500 300h-200v-50h-50v-100h50v-50h200v50h50v100h-50v50v0z" />
<glyph unicode="&#xe4;" horiz-adv-x="1000" d="M400 800h400v-300h-400v300v0zM0 100h400v-300h-400v300v0z" />
<glyph unicode="&#xe5;" horiz-adv-x="1000" d="M400 800h400v-300h-400v300v0zM0 100h400v-300h-400v300v0z" />
<glyph unicode="&#xe6;" horiz-adv-x="1000" d="M400 800h400v-300h-400v300v0zM0 100h400v-300h-400v300v0zM800 800h400v-700h400v-300h-400v300h-400v700v0z" />
<glyph unicode="&#xe7;" horiz-adv-x="1000" d="M0 800h800v-300h-800v300v0zM350 100h450v-300h-450v300v0z" />
<glyph unicode="&#xe8;" horiz-adv-x="1000" d="M0 800h400v-700h400v-300h-400v300h-400v700v0zM250 700h100v-50h50v-50h50v-50h50v-50h50v-100h-100v50h-50v50h-50v50h-50v50h-50v100v0z" />
<glyph unicode="&#xe9;" horiz-adv-x="1000" d="M0 800h400v-700h400v-300h-400v300h-400v700v0zM150 700h100v-50h50v-50h50v-100h100v100h50v50h50v50h100v-100h-50v-50h-50v-50h100v-100h-200v-100h200v-100h-200v-200h-100v200h-200v100h200v100h-200v100h100v50h-50v50h-50v100v0z" />
<glyph unicode="&#xea;" horiz-adv-x="1000" d="M0 800h400v-700h400v-300h-400v300h-400v700v0zM250 700h100v-50h50v-50h50v-100h100v-50h50v-50h50v-400h-400v50h-50v50h-50v100h50v50h50v50h300v50h-50v50h-250v100h100v50h-50v50h-50v100v0zM550 200h-250v-100h250v100v0z" />
<glyph unicode="&#xeb;" horiz-adv-x="1000" d="M0 800h400v-700h400v-300h-400v300h-400v700v0z" />
<glyph unicode="&#xec;" horiz-adv-x="1000" d="M0 800h400v-300h400v-700h-400v700h-400v300v0zM250 700h100v-50h50v-50h50v-50h50v-50h50v-100h-100v50h-50v50h-50v50h-50v50h-50v100v0z" />
<glyph unicode="&#xed;" horiz-adv-x="1000" d="M0 800h400v-300h400v-700h-400v700h-400v300v0zM150 700h100v-50h50v-50h50v-100h100v100h50v50h50v50h100v-100h-50v-50h-50v-50h100v-100h-200v-100h200v-100h-200v-200h-100v200h-200v100h200v100h-200v100h100v50h-50v50h-50v100v0z" />
<glyph unicode="&#xee;" horiz-adv-x="1000" d="M0 800h400v-300h400v-700h-400v700h-400v300v0zM250 700h100v-50h50v-50h50v-100h100v-50h50v-50h50v-400h-400v50h-50v50h-50v100h50v50h50v50h300v50h-50v50h-250v100h100v50h-50v50h-50v100v0zM550 200h-250v-100h250v100v0z" />
<glyph unicode="&#xef;" horiz-adv-x="1000" d="M0 800h400v-300h400v-700h-400v700h-400v300v0z" />
<glyph unicode="&#xf0;" horiz-adv-x="1000" d="M0 800h400v-300h400v-400h-400v-300h-400v300h400v400h-400v300v0z" />
<glyph unicode="&#xf1;" horiz-adv-x="1000" d="M400 800h400v-1000h-400v300h-400v400h400v300v0zM250 700h100v-50h50v-50h50v-100h-100v50h-50v50h-50v100v0zM250 400h300v-50h50v-50h50v-200h-50v-50h-50v-50h-300v50h-50v50h-50v200h50v50h50v50v0zM500 300h-200v-50h-50v-100h50v-50h200v50h50v100h-50v50v0z" />
<glyph unicode="&#xf2;" horiz-adv-x="1000" d="M0 100h450v-300h-450v300v0zM250 700h100v-50h50v-50h50v-50h50v-50h50v-100h-100v50h-50v50h-50v50h-50v50h-50v100v0z" />
<glyph unicode="&#xf3;" horiz-adv-x="1000" d="M0 100h450v-300h-450v300v0zM150 700h100v-50h50v-50h50v-100h100v100h50v50h50v50h100v-100h-50v-50h-50v-50h100v-100h-200v-100h200v-100h-200v-200h-100v200h-200v100h200v100h-200v100h100v50h-50v50h-50v100v0z" />
<glyph unicode="&#xf4;" horiz-adv-x="1000" d="M0 100h450v-300h-450v300v0zM250 700h100v-50h50v-50h50v-100h100v-50h50v-50h50v-400h-400v50h-50v50h-50v100h50v50h50v50h300v50h-50v50h-250v100h100v50h-50v50h-50v100v0zM550 200h-250v-100h250v100v0z" />
<glyph unicode="&#xf5;" horiz-adv-x="1000" d="M0 100h450v-300h-450v300v0zM250 700h100v-50h50v-50h50v-100h-100v50h-50v50h-50v100v0zM250 400h300v-50h50v-50h50v-200h-50v-50h-50v-50h-300v50h-50v50h-50v200h50v50h50v50v0zM500 300h-200v-50h-50v-100h50v-50h200v50h50v100h-50v50v0z" />
<glyph unicode="&#xf6;" horiz-adv-x="1000" d="M0 100h450v-300h-450v300v0z" />
<glyph unicode="&#xf7;" horiz-adv-x="1000" d="M400 800h400v-700h-400v-300h-400v300h400v700v0z" />
<glyph unicode="&#xf8;" d="M150 700h500v-100h-500v100v0zM0 100h450v-300h-450v300v0zM0 800h800v-700h-800v700v0z" />
<glyph unicode="&#xf9;" horiz-adv-x="1000" d="M0 800h400v-700h400v-300h-800v1000v0zM250 700h100v-50h50v-50h50v-50h50v-50h50v-100h-100v50h-50v50h-50v50h-50v50h-50v100v0z" />
<glyph unicode="&#xfa;" horiz-adv-x="1000" d="M0 800h400v-700h400v-300h-800v1000v0zM150 700h100v-50h50v-50h50v-100h100v100h50v50h50v50h100v-100h-50v-50h-50v-50h100v-100h-200v-100h200v-100h-200v-200h-100v200h-200v100h200v100h-200v100h100v50h-50v50h-50v100v0z" />
<glyph unicode="&#xfb;" horiz-adv-x="1000" d="M0 800h400v-700h400v-300h-800v1000v0zM250 700h100v-50h50v-50h50v-100h100v-50h50v-50h50v-400h-400v50h-50v50h-50v100h50v50h50v50h300v50h-50v50h-250v100h100v50h-50v50h-50v100v0zM550 200h-250v-100h250v100v0z" />
<glyph unicode="&#xfc;" d="M300 100h100v-50h50v-50h50v-100h-50v-50h-50v-50h-100v100h50v100h-50v100v0zM0 800h400v-700h400v-300h-800v1000v0z" />
<glyph unicode="&#x129;" horiz-adv-x="1000" />
<glyph unicode="&#x141;" horiz-adv-x="1000" />
<glyph unicode="&#x143;" horiz-adv-x="1000" />
<glyph unicode="&#x144;" horiz-adv-x="1000" />
<glyph unicode="&#x157;" horiz-adv-x="1000" />
<glyph unicode="&#x2000;" horiz-adv-x="400" />
<glyph unicode="&#x2001;" />
<glyph unicode="&#x2002;" horiz-adv-x="400" />
<glyph unicode="&#x2003;" />
<glyph unicode="&#x2004;" horiz-adv-x="266" />
<glyph unicode="&#x2005;" horiz-adv-x="200" />
<glyph unicode="&#x2006;" horiz-adv-x="133" />
<glyph unicode="&#x2007;" horiz-adv-x="133" />
<glyph unicode="&#x2008;" horiz-adv-x="100" />
<glyph unicode="&#x2009;" horiz-adv-x="160" />
<glyph unicode="&#x200a;" horiz-adv-x="44" />
<glyph unicode="&#x202f;" horiz-adv-x="160" />
<glyph unicode="&#x205f;" horiz-adv-x="200" />
<glyph unicode="&#xe000;" horiz-adv-x="500" d="M0 500h500v-500h-500v500z" />
</font>
</defs>
</svg>
